# xmcd
#
# Track frame offsets:
#	150
#	10659
#	23656
#	35652
#	50784
#	65585
#	76212
#	96407
#	114042
#	123533
#	136867
#	152116
#	169680
#	180650
#
# Disc length: 2546 seconds
#
# Revision: 0
# Processed by: cddbd v1.4PL0 Copyright (c) Steve Scherf et al.
# Submitted via: dBpowerAMP V4.0
#
DISCID=b009f00e
DTITLE=Mario Bofill - Volver a Vivir
DYEAR=1998
DGENRE=Country
TTITLE0=La Tacuchi
TTITLE1=Despues de la secundaria
TTITLE2=A Don Titolo
TTITLE3=Jacinto y Batuque
TTITLE4=Los Dos Viejitos
TTITLE5=El Despaletado
TTITLE6=De Tanto que en mis sueños te tenia
TTITLE7=Soy Region
TTITLE8=La Palabrita
TTITLE9=Arachichu
TTITLE10=Encuentos de los Domingos
TTITLE11=¡Chiuffff-Top
TTITLE12=Lo Tenia Jurado
TTITLE13=La Mamanga
EXTD=
EXTT0=
EXTT1=
EXTT2=
EXTT3=
EXTT4=
EXTT5=
EXTT6=
EXTT7=
EXTT8=
EXTT9=
EXTT10=
EXTT11=
EXTT12=
EXTT13=
PLAYORDER=
